<mxfile host="Electron" agent="Mozilla/5.0 (Windows NT 10.0; Win64; x64) AppleWebKit/537.36 (KHTML, like Gecko) draw.io/24.7.5 Chrome/126.0.6478.183 Electron/31.3.0 Safari/537.36" version="24.7.5">
  <diagram name="Page-1" id="K8h90P1WsOaHbY_wuntf">
    <mxGraphModel dx="1434" dy="837" grid="1" gridSize="10" guides="1" tooltips="1" connect="1" arrows="1" fold="1" page="1" pageScale="1" pageWidth="827" pageHeight="1169" math="0" shadow="0">
      <root>
        <mxCell id="0" />
        <mxCell id="1" parent="0" />
        <mxCell id="FmdEyZNDhsbqGVRpOYiC-1" value="&lt;font style=&quot;font-size: 20px;&quot;&gt;Network software chain&lt;/font&gt;" style="rounded=0;whiteSpace=wrap;html=1;align=left;verticalAlign=top;" vertex="1" parent="1">
          <mxGeometry x="220" y="260" width="750" height="180" as="geometry" />
        </mxCell>
        <mxCell id="q0JgdYkWZRU9ypQjrL84-6" value="Microsoft LAN Manager (NETBIND)" style="rounded=0;whiteSpace=wrap;html=1;align=left;verticalAlign=top;" parent="1" vertex="1">
          <mxGeometry x="354" y="300" width="276" height="120" as="geometry" />
        </mxCell>
        <mxCell id="q0JgdYkWZRU9ypQjrL84-1" value="Manufacturer&amp;nbsp;&lt;div&gt;NDIS2 Driver&lt;/div&gt;" style="rounded=0;whiteSpace=wrap;html=1;" parent="1" vertex="1">
          <mxGeometry x="370" y="330" width="90" height="60" as="geometry" />
        </mxCell>
        <mxCell id="q0JgdYkWZRU9ypQjrL84-2" value="Network Adapter" style="rounded=0;whiteSpace=wrap;html=1;" parent="1" vertex="1">
          <mxGeometry x="230" y="330" width="100" height="60" as="geometry" />
        </mxCell>
        <mxCell id="q0JgdYkWZRU9ypQjrL84-3" value="&lt;div&gt;&lt;span style=&quot;background-color: initial;&quot;&gt;Microsoft Protocol Manager (PROTMAN)&lt;/span&gt;&lt;br&gt;&lt;/div&gt;" style="rounded=0;whiteSpace=wrap;html=1;" parent="1" vertex="1">
          <mxGeometry x="490" y="330" width="120" height="60" as="geometry" />
        </mxCell>
        <mxCell id="q0JgdYkWZRU9ypQjrL84-4" value="NDIS to Packet Driver Shim&lt;div&gt;(DIS_PKT.DOS)&lt;/div&gt;" style="rounded=0;whiteSpace=wrap;html=1;" parent="1" vertex="1">
          <mxGeometry x="650" y="330" width="160" height="60" as="geometry" />
        </mxCell>
        <mxCell id="q0JgdYkWZRU9ypQjrL84-5" value="DOS Packet Driver based programs" style="rounded=0;whiteSpace=wrap;html=1;" parent="1" vertex="1">
          <mxGeometry x="840" y="330" width="120" height="60" as="geometry" />
        </mxCell>
        <mxCell id="q0JgdYkWZRU9ypQjrL84-8" value="" style="endArrow=none;html=1;rounded=0;exitX=1;exitY=0.5;exitDx=0;exitDy=0;" parent="1" source="q0JgdYkWZRU9ypQjrL84-2" target="q0JgdYkWZRU9ypQjrL84-1" edge="1">
          <mxGeometry width="50" height="50" relative="1" as="geometry">
            <mxPoint x="570" y="350" as="sourcePoint" />
            <mxPoint x="620" y="300" as="targetPoint" />
          </mxGeometry>
        </mxCell>
        <mxCell id="q0JgdYkWZRU9ypQjrL84-9" value="" style="endArrow=none;html=1;rounded=0;exitX=1;exitY=0.5;exitDx=0;exitDy=0;" parent="1" source="q0JgdYkWZRU9ypQjrL84-1" target="q0JgdYkWZRU9ypQjrL84-3" edge="1">
          <mxGeometry width="50" height="50" relative="1" as="geometry">
            <mxPoint x="570" y="350" as="sourcePoint" />
            <mxPoint x="620" y="300" as="targetPoint" />
          </mxGeometry>
        </mxCell>
        <mxCell id="q0JgdYkWZRU9ypQjrL84-10" value="" style="endArrow=none;html=1;rounded=0;exitX=1;exitY=0.5;exitDx=0;exitDy=0;entryX=0;entryY=0.5;entryDx=0;entryDy=0;" parent="1" source="q0JgdYkWZRU9ypQjrL84-3" target="q0JgdYkWZRU9ypQjrL84-4" edge="1">
          <mxGeometry width="50" height="50" relative="1" as="geometry">
            <mxPoint x="570" y="350" as="sourcePoint" />
            <mxPoint x="620" y="300" as="targetPoint" />
          </mxGeometry>
        </mxCell>
        <mxCell id="q0JgdYkWZRU9ypQjrL84-11" value="" style="endArrow=none;html=1;rounded=0;entryX=0;entryY=0.5;entryDx=0;entryDy=0;exitX=1;exitY=0.5;exitDx=0;exitDy=0;" parent="1" source="q0JgdYkWZRU9ypQjrL84-4" target="q0JgdYkWZRU9ypQjrL84-5" edge="1">
          <mxGeometry width="50" height="50" relative="1" as="geometry">
            <mxPoint x="570" y="350" as="sourcePoint" />
            <mxPoint x="620" y="300" as="targetPoint" />
          </mxGeometry>
        </mxCell>
      </root>
    </mxGraphModel>
  </diagram>
</mxfile>
